HIERARCHY
ROOT Hips
{
	OFFSET 0.000000 0.000000 0.000000
	CHANNELS 6 Xposition Yposition Zposition Zrotation Yrotation Xrotation 
	JOINT LHipJoint
	{
		OFFSET 0.000000 0.000000 0.000000
		CHANNELS 3 Zrotation Yrotation Xrotation
		JOINT LeftUpLeg
		{
			OFFSET 1.363060 -1.794630 0.839290
			CHANNELS 3 Zrotation Yrotation Xrotation
			JOINT LeftLeg
			{
				OFFSET 2.448110 -6.726130 0.000000
				CHANNELS 3 Zrotation Yrotation Xrotation
				JOINT LeftFoot
				{
					OFFSET 2.562200 -7.039590 0.000000
					CHANNELS 3 Zrotation Yrotation Xrotation
					JOINT LeftToeBase
					{
						OFFSET 0.157640 -0.433110 2.322550
						CHANNELS 3 Zrotation Yrotation Xrotation
						End Site
						{
							OFFSET 0.000000 0.000000 0.000000
						}
					}
				}
			}
		}
	}
	JOINT RHipJoint
	{
		OFFSET 0.000000 0.000000 0.000000
		CHANNELS 3 Zrotation Yrotation Xrotation
		JOINT RightUpLeg
		{
			OFFSET -1.305520 -1.794630 0.839290
			CHANNELS 3 Zrotation Yrotation Xrotation
			JOINT RightLeg
			{
				OFFSET -2.542530 -6.985550 0.000000
				CHANNELS 3 Zrotation Yrotation Xrotation
				JOINT RightFoot
				{
					OFFSET -2.568260 -7.056230 0.000000
					CHANNELS 3 Zrotation Yrotation Xrotation
					JOINT RightToeBase
					{
						OFFSET -0.164730 -0.452590 2.363150
						CHANNELS 3 Zrotation Yrotation Xrotation
						End Site
						{
							OFFSET 0.000000 0.000000 0.000000
						}
					}
				}
			}
		}
	}
	JOINT LowerBack
	{
		OFFSET 0.000000 0.000000 0.000000
		CHANNELS 3 Zrotation Yrotation Xrotation
		JOINT Spine
		{
			OFFSET 0.028270 2.035590 -0.193380
			CHANNELS 3 Zrotation Yrotation Xrotation
			JOINT Spine1
			{
				OFFSET 0.056720 2.048850 -0.042750
				CHANNELS 3 Zrotation Yrotation Xrotation
				JOINT Neck
				{
					OFFSET 0.000000 0.000000 0.000000
					CHANNELS 3 Zrotation Yrotation Xrotation
					JOINT Neck1
					{
						OFFSET -0.054170 1.746240 0.172020
						CHANNELS 3 Zrotation Yrotation Xrotation
						JOINT Head
						{
							OFFSET 0.104070 1.761360 -0.123970
							CHANNELS 3 Zrotation Yrotation Xrotation
							End Site
							{
								OFFSET 0.000000 0.000000 0.000000
							}
						}
					}
				}
				JOINT LeftShoulder
				{
					OFFSET 0.000000 0.000000 0.000000
					CHANNELS 3 Zrotation Yrotation Xrotation
					JOINT LeftArm
					{
						OFFSET 3.362410 1.200890 -0.311210
						CHANNELS 3 Zrotation Yrotation Xrotation
						JOINT LeftForeArm
						{
							OFFSET 4.983000 -0.000000 -0.000000
							CHANNELS 3 Zrotation Yrotation Xrotation
							JOINT LeftHand
							{
								OFFSET 3.483560 -0.000000 -0.000000
								CHANNELS 3 Zrotation Yrotation Xrotation
								JOINT LeftFingerBase
								{
									OFFSET 0.000000 0.000000 0.000000
									CHANNELS 3 Zrotation Yrotation Xrotation
									JOINT LeftHandIndex1
									{
										OFFSET 0.715260 -0.000000 -0.000000
										CHANNELS 3 Zrotation Yrotation Xrotation
										End Site
										{
											OFFSET 0.000000 0.000000 0.000000
										}
									}
								}
								JOINT LThumb
								{
									OFFSET 0.000000 0.000000 0.000000
									CHANNELS 3 Zrotation Yrotation Xrotation
									End Site
									{
										OFFSET 0.000000 0.000000 0.000000
									}
								}
							}
						}
					}
				}
				JOINT RightShoulder
				{
					OFFSET 0.000000 0.000000 0.000000
					CHANNELS 3 Zrotation Yrotation Xrotation
					JOINT RightArm
					{
						OFFSET -3.136600 1.374050 -0.404650
						CHANNELS 3 Zrotation Yrotation Xrotation
						JOINT RightForeArm
						{
							OFFSET -5.241900 -0.000000 -0.000000
							CHANNELS 3 Zrotation Yrotation Xrotation
							JOINT RightHand
							{
								OFFSET -3.444170 -0.000000 -0.000000
								CHANNELS 3 Zrotation Yrotation Xrotation
								JOINT RightFingerBase
								{
									OFFSET 0.000000 0.000000 0.000000
									CHANNELS 3 Zrotation Yrotation Xrotation
									JOINT RightHandIndex1
									{
										OFFSET -0.622530 -0.000000 -0.000000
										CHANNELS 3 Zrotation Yrotation Xrotation
										End Site
										{
											OFFSET 0.000000 0.000000 0.000000
										}
									}
								}
								JOINT RThumb
								{
									OFFSET 0.000000 0.000000 0.000000
									CHANNELS 3 Zrotation Yrotation Xrotation
									End Site
									{
										OFFSET 0.000000 0.000000 0.000000
									}
								}
							}
						}
					}
				}
			}
		}
	}
}
MOTION
Frames: 7
Frame Time: 0.008333
-4.165719 16.872054 0.759966 -61.303929 87.517364 -54.501109 -9.376491 1.243280 0.216781 -20.227754 16.321247 -34.463966 -3.304035 -0.563795 8.826241 1.176879 8.054884 0.843526 1.600800 0.000000 -8.278700 10.160251 -3.586115 -0.701605 3.616111 -11.097936 3.736259 2.461459 -1.008195 19.155681 0.766621 8.472149 -4.675363 0.241400 0.000001 -69.960900 -0.471351 0.328454 -0.829309 -1.273248 0.253370 -3.231409 -7.775841 0.182468 0.301724 10.930285 -1.921228 -4.442701 -4.514328 -0.372360 0.797511 0.000000 0.000000 0.000000 -6.415180 12.655246 1.539424 -71.567084 15.879890 9.488551 -2.943968 -22.364860 -0.001366 1.238995 5.289290 0.059390 -0.030778 -0.078642 -0.000000 0.000000 0.000000 0.000000 0.000000 0.000000 0.000000 20.700647 2.911462 -0.093638 66.679973 26.948790 12.931423 2.641066 35.078397 0.012077 1.833948 6.810079 0.110543 0.038914 -0.182248 0.000000 0.000000 0.000000 0.000000 0.000000 0.000000 0.000000 
-4.016536 16.886260 0.726100 -71.990093 88.095828 -65.282488 -9.341972 1.309030 0.358480 -20.306051 15.415389 -33.756619 -3.263119 -0.545390 9.385588 1.170003 8.017505 0.610875 1.556000 -0.000000 -6.544800 10.375186 -3.701794 -0.794749 2.638093 -11.823182 2.869189 2.287125 -1.306279 21.594996 0.830393 9.179035 -3.330895 0.425300 -0.000000 -72.695400 -0.956670 0.153205 -0.924517 -1.365538 0.105348 -3.241144 -7.816642 0.031688 0.325665 11.095526 -2.024456 -4.449833 -4.556250 -0.375478 0.792702 0.000000 0.000000 0.000000 -6.176032 12.443558 1.517709 -71.321600 15.426391 9.602713 -2.974515 -22.231052 -0.001458 1.284712 5.261562 0.061300 -0.032463 -0.076973 -0.000000 0.000000 0.000000 0.000000 0.000000 0.000000 0.000000 21.081632 2.664052 -0.090488 66.912447 26.086923 12.508680 2.690555 34.166130 0.012288 1.990572 6.754166 0.119033 0.039144 -0.174856 0.000000 0.000000 0.000000 0.000000 0.000000 0.000000 0.000000 
-3.870807 16.902127 0.692028 -106.646799 88.893906 -100.005768 -9.578473 1.228271 0.501791 -20.507594 14.332273 -32.916865 -3.185180 -0.562798 9.835826 1.176181 8.110019 0.339434 1.524600 0.000000 -5.169200 10.336674 -3.925549 -0.908225 1.557435 -12.570134 1.863912 2.144610 -1.665799 24.193176 0.868616 9.863539 -1.760875 0.686700 0.000000 -75.366201 -1.801521 -0.116715 -1.001839 -1.493354 -0.110054 -3.244348 -7.824730 -0.192080 0.342092 11.246011 -2.127776 -4.448646 -4.591120 -0.378240 0.788833 0.000000 0.000000 0.000000 -5.891792 12.113956 1.519219 -71.093457 14.920524 9.707593 -3.018004 -22.085253 -0.001625 1.339904 5.240557 0.063716 -0.034979 -0.074682 -0.000000 0.000000 0.000000 0.000000 0.000000 0.000000 0.000000 21.421321 2.360593 -0.094234 67.154706 25.183980 11.929982 2.726669 33.207507 0.012279 2.126369 6.664733 0.125517 0.038730 -0.167285 0.000000 0.000000 0.000000 0.000000 0.000000 0.000000 0.000000 
-3.728741 16.919018 0.655394 15.139815 89.908728 21.734542 -10.036969 1.553191 0.791479 -20.755754 13.338041 -32.297111 -3.169151 -0.408960 10.041954 1.299728 8.503312 -0.115812 1.492001 0.000000 -4.158700 9.969066 -3.584038 -1.097474 0.367832 -12.865933 0.840103 1.773402 -1.814382 27.125475 0.913828 10.577891 0.085569 1.028900 0.000000 -77.783200 -2.969084 -0.024579 -1.125169 -1.697371 0.055543 -3.282896 -7.840344 -0.042278 0.343496 11.362143 -2.229590 -4.467655 -4.619112 -0.379915 0.782983 0.000000 0.000000 0.000000 -5.630149 11.969098 1.443041 -70.857924 14.343207 9.822766 -3.047712 -21.971626 -0.001743 1.403184 5.224406 0.066621 -0.037303 -0.074237 -0.000000 0.000000 0.000000 0.000000 0.000000 0.000000 0.000000 21.696295 2.251468 -0.035534 67.387061 24.305681 11.248720 2.779225 32.176144 0.012404 2.232528 6.547924 0.129417 0.039582 -0.161990 0.000000 0.000000 0.000000 0.000000 0.000000 0.000000 0.000000 
-3.591140 16.936014 0.617111 -6.694224 89.907254 -0.125411 -9.672663 1.884882 0.993364 -20.733203 12.336285 -31.629028 -3.181430 -0.342945 10.319728 1.395986 8.843125 -0.634378 1.459300 0.000000 -3.489300 10.440502 -3.306522 -1.171688 -0.351429 -13.099808 -0.356201 1.353578 -1.961729 30.069519 0.903272 11.106578 2.177829 1.451600 0.000000 -79.802800 -3.039330 0.045974 -1.224510 -1.759159 0.123058 -3.309911 -7.896789 0.027294 0.350881 11.416810 -2.334048 -4.496432 -4.651722 -0.381965 0.775399 0.000000 0.000000 0.000000 -5.390377 11.741746 1.389459 -70.640613 13.683956 9.958904 -3.058557 -21.844009 -0.001768 1.474169 5.216793 0.069732 -0.038219 -0.071953 -0.000000 0.000000 0.000000 0.000000 0.000000 0.000000 0.000000 21.900783 2.118518 0.017106 67.596732 23.420769 10.471808 2.844179 31.137007 0.012507 2.312488 6.406867 0.131011 0.041730 -0.155640 0.000000 0.000000 0.000000 0.000000 0.000000 0.000000 0.000000 
-3.458185 16.952491 0.576451 167.030520 89.586044 173.624646 -9.492396 1.989168 1.138144 -20.762457 11.330610 -30.912420 -3.150239 -0.342571 10.588518 1.468177 9.153768 -1.158810 1.416500 -0.000000 -3.114000 10.742900 -3.244532 -1.211071 -0.923478 -13.245774 -1.690294 1.015208 -2.186414 33.034584 0.839978 11.443012 4.411828 1.938200 0.000000 -81.258100 -3.209666 -0.020318 -1.308863 -1.807332 0.063506 -3.325375 -7.922491 -0.032863 0.354995 11.434662 -2.419852 -4.522369 -4.678120 -0.383742 0.767347 0.000000 0.000000 0.000000 -5.159348 11.410440 1.374911 -70.434257 12.941607 10.137933 -3.077147 -21.723499 -0.001872 1.545925 5.216765 0.073149 -0.039667 -0.068385 -0.000000 0.000000 0.000000 0.000000 0.000000 0.000000 0.000000 22.038762 1.928598 0.055338 67.779227 22.510818 9.593653 2.896195 30.088188 0.012411 2.369591 6.246241 0.130796 0.043308 -0.148863 0.000000 0.000000 0.000000 0.000000 0.000000 0.000000 0.000000 
-3.330189 16.967764 0.534727 164.268979 89.016222 170.907063 -9.386593 2.049480 1.253659 -20.848535 10.412179 -30.177180 -3.117537 -0.354880 10.762936 1.540534 9.471153 -1.689757 1.366000 0.000000 -2.962800 10.964370 -3.187837 -1.235617 -1.422167 -13.232933 -3.101758 0.683349 -2.403925 36.059232 0.739901 11.661347 6.736757 2.468401 -0.000000 -82.041800 -3.431540 -0.093657 -1.372477 -1.855991 0.001752 -3.338276 -7.937723 -0.096846 0.349367 11.425043 -2.492805 -4.549633 -4.701694 -0.385296 0.758658 0.000000 0.000000 0.000000 -4.936679 11.028285 1.370820 -70.228682 12.149233 10.331558 -3.096275 -21.653029 -0.002015 1.614162 5.223806 0.076367 -0.041236 -0.064350 -0.000000 0.000000 0.000000 0.000000 0.000000 0.000000 0.000000 22.135550 1.746687 0.103695 67.929809 21.609557 8.661851 2.944785 29.019863 0.012231 2.404297 6.069324 0.128878 0.044884 -0.142378 0.000000 0.000000 0.000000 0.000000 0.000000 0.000000 0.000000 
